<?xml version="1.0" encoding="UTF-8"?>
<svg xmlns="http://www.w3.org/2000/svg" width="133" height="40" viewBox="0 0 133 40" fill="none">
  <path d="M23.7217 8.94066L15.0242 19.9782L23.7217 31.0011L30.8047 40H46.5708L47.3707 38.9807L32.4046 19.9782L47.3707 0.975609L46.6144 0H30.7611L23.7217 8.94066Z" fill="#1E0BDE"></path>
  <path d="M0 0.975609L14.9661 19.9782L0 38.9807L0.799937 40H16.566L23.6491 31.0011L32.3465 19.9782L23.6491 8.94066L16.6096 0H0.756305L0 0.975609Z" fill="url(#paint0_linear_91_4)"></path>
  <path opacity="0.57" d="M14.966 19.9783L23.6781 30.9721L12.5371 23.0653L14.966 19.9783Z" fill="#1E0BDE"></path>
  <path d="M54.7739 7.39722H59.7481C62.5842 7.39722 65.0131 8.37283 65.0131 11.6491C65.0131 14.8235 62.5842 16.1486 59.7481 16.1486H58.25V20.5607H54.7739V7.39722ZM59.5154 13.3965C60.8971 13.3965 61.6243 12.7849 61.6243 11.6491C61.6243 10.5133 60.8971 10.1493 59.5154 10.1493H58.2646V13.3965H59.5154ZM59.1227 15.2458L61.4643 12.9305L65.7403 20.5607H61.857L59.1227 15.2458Z" fill="#3300FF"></path>
  <path d="M66.9619 13.9207C66.9619 9.5814 69.4344 7.14966 73.0705 7.14966C76.7066 7.14966 79.1791 9.59596 79.1791 13.9207C79.1791 18.2454 76.7066 20.8082 73.0705 20.8082C69.4344 20.8082 66.9619 18.26 66.9619 13.9207ZM75.6158 13.9207C75.6158 11.5326 74.6413 10.1493 73.0705 10.1493C71.4997 10.1493 70.5253 11.5326 70.5253 13.9207C70.5253 16.3087 71.4997 17.8086 73.0705 17.8086C74.6413 17.8086 75.6158 16.3087 75.6158 13.9207Z" fill="#3300FF"></path>
  <path d="M83.2225 13.8042L79.8628 7.39722H83.7461L84.6333 9.5523C84.9242 10.1639 85.2005 10.8919 85.5641 11.7365H85.6369C85.9277 10.8774 86.2041 10.1493 86.4513 9.5523L87.2222 7.39722H90.9601L87.6003 13.9644L91.1637 20.5752H87.2804L86.2332 18.2309C85.9132 17.5465 85.6223 16.8475 85.3023 16.0467H85.2151C84.9387 16.8621 84.6478 17.5465 84.3715 18.2309L83.4116 20.5898H79.6882L83.2225 13.8042Z" fill="#3300FF"></path>
  <path d="M92.8218 7.39722H96.2979V20.5607H92.8218V7.39722Z" fill="#3300FF"></path>
  <path d="M99.2213 7.39722H102.697V17.6484H107.672V20.5607H99.2068V7.39722H99.2213Z" fill="#3300FF"></path>
  <path d="M109.94 7.39722H118.434V10.3095H113.417V12.3772H117.707V15.2895H113.417V17.6338H118.638V20.5461H109.94V7.39722Z" fill="#3300FF"></path>
  <path d="M121.198 7.39722H126.172C129.008 7.39722 131.437 8.37283 131.437 11.6491C131.437 14.8235 129.008 16.1486 126.172 16.1486H124.674V20.5607H121.198V7.39722ZM125.925 13.3965C127.306 13.3965 128.034 12.7849 128.034 11.6491C128.034 10.5133 127.306 10.1493 125.925 10.1493H124.674V13.3965H125.925ZM125.546 15.2458L127.888 12.9305L132.164 20.5607H128.281L125.546 15.2458Z" fill="#3300FF"></path>
  <path d="M55.3556 30.8263C55.6029 31.0884 55.8938 31.3069 56.2283 31.467C56.5628 31.6272 56.9119 31.7 57.2755 31.7C57.7409 31.7 58.09 31.5981 58.3518 31.3797C58.6135 31.1758 58.7299 30.8991 58.7299 30.5497C58.7299 30.3749 58.7008 30.2148 58.6426 30.0983C58.5845 29.9672 58.4972 29.8653 58.3954 29.7779C58.2936 29.6905 58.1772 29.6032 58.0318 29.5449C57.8863 29.4721 57.7409 29.3993 57.5809 29.3265L56.5773 28.8897C56.4174 28.8169 56.2428 28.7295 56.0828 28.6276C55.9083 28.5256 55.7629 28.4091 55.632 28.2635C55.5011 28.1179 55.3847 27.9577 55.2974 27.7539C55.2102 27.5646 55.1665 27.3316 55.1665 27.0841C55.1665 26.822 55.2247 26.5744 55.3265 26.356C55.4429 26.123 55.5883 25.9337 55.7774 25.759C55.9665 25.5988 56.1992 25.4678 56.4755 25.3658C56.7373 25.2785 57.0282 25.2202 57.3482 25.2202C57.77 25.2202 58.1481 25.293 58.5117 25.4532C58.8608 25.6134 59.1662 25.8172 59.4135 26.0793L58.9335 26.6472C58.7154 26.4434 58.4827 26.2832 58.2209 26.1667C57.9591 26.0502 57.6682 25.992 57.3482 25.992C56.9555 25.992 56.6501 26.0793 56.4028 26.2686C56.1701 26.4434 56.0538 26.7055 56.0538 27.0258C56.0538 27.2006 56.0828 27.3462 56.1556 27.4627C56.2283 27.5792 56.3156 27.6811 56.4319 27.7685C56.5483 27.8558 56.6646 27.9286 56.8101 28.0014C56.941 28.0742 57.0864 28.1325 57.2318 28.1907L58.2209 28.613C58.4245 28.7004 58.6135 28.8023 58.7881 28.9042C58.9626 29.0207 59.1226 29.1372 59.239 29.2828C59.3699 29.4284 59.4717 29.6032 59.5444 29.7925C59.6171 29.9818 59.6607 30.2148 59.6607 30.4623C59.6607 30.739 59.6026 31.0011 59.5008 31.234C59.3844 31.4816 59.239 31.6854 59.0208 31.8602C58.8172 32.0349 58.5699 32.1805 58.279 32.2825C57.9881 32.3844 57.6536 32.4426 57.29 32.4426C56.7955 32.4426 56.3446 32.3553 55.9229 32.166C55.5011 31.9767 55.1375 31.7291 54.832 31.4088L55.3556 30.8263Z" fill="#1E0BDE"></path>
  <path d="M62.0604 29.6468L59.9661 25.3657H60.9114L61.8132 27.3315C61.9295 27.5936 62.0314 27.8411 62.1477 28.0887C62.2495 28.3362 62.3659 28.5983 62.4822 28.8604H62.5259C62.6422 28.5983 62.7731 28.3362 62.8895 28.0887C63.0058 27.8411 63.1222 27.5936 63.224 27.3315L64.1112 25.3657H65.042L62.9476 29.6468V32.3552H62.0604V29.6468Z" fill="#1E0BDE"></path>
  <path d="M65.8566 30.8263C66.1039 31.0884 66.3947 31.3069 66.7293 31.467C67.0638 31.6272 67.4128 31.7 67.7765 31.7C68.2419 31.7 68.5909 31.5981 68.8527 31.3797C69.1145 31.1612 69.2309 30.8991 69.2309 30.5497C69.2309 30.3749 69.2018 30.2148 69.1436 30.0983C69.0854 29.9672 68.9982 29.8653 68.8964 29.7779C68.7946 29.6905 68.6782 29.6032 68.5328 29.5449C68.3873 29.4721 68.2419 29.3993 68.0819 29.3265L67.0783 28.8897C66.9183 28.8169 66.7438 28.7295 66.5838 28.6276C66.4093 28.5256 66.2638 28.4091 66.1329 28.2635C66.002 28.1179 65.8857 27.9577 65.7984 27.7539C65.7112 27.5646 65.6675 27.3316 65.6675 27.0841C65.6675 26.822 65.7257 26.5744 65.8275 26.356C65.9439 26.123 66.0893 25.9337 66.2784 25.759C66.4675 25.5988 66.7002 25.4678 66.9765 25.3658C67.2383 25.2785 67.5292 25.2202 67.8492 25.2202C68.271 25.2202 68.6491 25.293 69.0127 25.4532C69.3618 25.6134 69.6672 25.8172 69.9145 26.0793L69.4345 26.6472C69.2163 26.4434 68.9836 26.2832 68.7218 26.1667C68.46 26.0502 68.1691 25.992 67.8492 25.992C67.4565 25.992 67.151 26.0793 66.9038 26.2686C66.6711 26.4434 66.5547 26.7055 66.5547 27.0258C66.5547 27.2006 66.5838 27.3462 66.6565 27.4627C66.7293 27.5792 66.8165 27.6811 66.9329 27.7685C67.0492 27.8558 67.1656 27.9286 67.311 28.0014C67.4419 28.0742 67.5874 28.1325 67.7328 28.1907L68.7218 28.613C68.9255 28.7004 69.1145 28.8023 69.2891 28.9042C69.4636 29.0207 69.6236 29.1372 69.7399 29.2828C69.8708 29.4284 69.9726 29.6032 70.0454 29.7925C70.1181 29.9818 70.1617 30.2148 70.1617 30.4623C70.1617 30.739 70.1035 31.0011 70.0017 31.234C69.8854 31.4816 69.7399 31.6854 69.5218 31.8602C69.3181 32.0349 69.0709 32.1805 68.78 32.2825C68.4891 32.3844 68.1546 32.4426 67.791 32.4426C67.2965 32.4426 66.8456 32.3553 66.4238 32.166C66.002 31.9767 65.6384 31.7291 65.333 31.4088L65.8566 30.8263Z" fill="#1E0BDE"></path>
  <path d="M72.7361 26.1083H70.6272V25.3657H75.7322V26.1083H73.6233V32.3406H72.7361V26.1083Z" fill="#1E0BDE"></path>
  <path d="M76.9976 25.3657H81.0118V26.1083H77.8702V28.3071H80.5173V29.0643H77.8702V31.598H81.1136V32.3552H76.9976V25.3657Z" fill="#1E0BDE"></path>
  <path d="M82.5972 25.3657H83.6444L84.997 29.1225L85.506 30.5496H85.5497L86.0442 29.1225L87.3822 25.3803H88.4294V32.3697H87.5859V28.5255C87.5859 28.2197 87.6004 27.8703 87.6295 27.4917C87.6586 27.1131 87.6877 26.7782 87.7022 26.4578H87.6586L87.0914 28.0159L85.7533 31.6708H85.2588L83.9062 28.0159L83.3535 26.4578H83.3098C83.3244 26.7636 83.3535 27.1131 83.3826 27.4917C83.4117 27.8703 83.4262 28.2052 83.4262 28.5255V32.3697H82.6117V25.3657H82.5972Z" fill="#1E0BDE"></path>
  <path d="M90.3493 30.8263C90.5965 31.0884 90.8874 31.3069 91.2219 31.467C91.5565 31.6272 91.9055 31.7 92.2691 31.7C92.7345 31.7 93.0836 31.5981 93.3454 31.3797C93.6072 31.1612 93.7236 30.8991 93.7236 30.5497C93.7236 30.3749 93.6945 30.2148 93.6363 30.0983C93.5781 29.9672 93.4908 29.8653 93.389 29.7779C93.2872 29.6905 93.1709 29.6032 93.0254 29.5449C92.88 29.4721 92.7345 29.3993 92.5746 29.3265L91.571 28.8897C91.411 28.8169 91.2365 28.7295 91.0765 28.6276C90.902 28.5256 90.7565 28.4091 90.6256 28.2635C90.4947 28.1179 90.3784 27.9577 90.2911 27.7539C90.2038 27.5646 90.1602 27.3316 90.1602 27.0841C90.1602 26.822 90.2184 26.5744 90.3202 26.356C90.4365 26.123 90.582 25.9337 90.7711 25.759C90.9601 25.5988 91.1928 25.4678 91.4692 25.3658C91.731 25.2785 92.0219 25.2202 92.3418 25.2202C92.7636 25.2202 93.1418 25.293 93.5054 25.4532C93.8545 25.6134 94.1599 25.8172 94.4071 26.0793L93.9272 26.6472C93.709 26.4434 93.4763 26.2832 93.2145 26.1667C92.9527 26.0502 92.6618 25.992 92.3418 25.992C91.9492 25.992 91.6437 26.0793 91.3965 26.2686C91.1638 26.4434 91.0474 26.7055 91.0474 27.0258C91.0474 27.2006 91.0765 27.3462 91.1492 27.4627C91.2219 27.5792 91.3092 27.6811 91.4256 27.7685C91.5419 27.8558 91.6583 27.9286 91.8037 28.0014C91.9346 28.0742 92.0801 28.1325 92.2255 28.1907L93.2145 28.613C93.4181 28.7004 93.6072 28.8023 93.7817 28.9042C93.9563 29.0207 94.1163 29.1372 94.2326 29.2828C94.3635 29.4284 94.4653 29.6032 94.538 29.7925C94.6108 29.9818 94.6544 30.2148 94.6544 30.4623C94.6544 30.739 94.5962 31.0011 94.4944 31.234C94.378 31.4816 94.2326 31.6854 94.0144 31.8602C93.8108 32.0349 93.5636 32.1805 93.2727 32.2825C92.9818 32.3844 92.6473 32.4426 92.2837 32.4426C91.7892 32.4426 91.3383 32.3553 90.9165 32.166C90.4947 31.9767 90.1311 31.7291 89.8257 31.4088L90.3493 30.8263Z" fill="#1E0BDE"></path>
  <defs>
    <linearGradient id="paint0_linear_91_4" x1="32.3465" y1="20.0007" x2="-2.79396" y2="20.0007" gradientUnits="userSpaceOnUse">
      <stop stop-color="#30B0FF"></stop>
      <stop offset="0.42" stop-color="#2866F0"></stop>
      <stop offset="0.81" stop-color="#2124E3"></stop>
      <stop offset="1" stop-color="#1E0BDE"></stop>
    </linearGradient>
  </defs>
</svg>
